<svg t="1589171723437" class="icon" viewBox="0 0 1024 1024" version="1.1"
  xmlns="http://www.w3.org/2000/svg" p-id="2783" width="15" height="15">
  <path d="M511.995907 958.659853c-25.41074 0-50.821479-9.660011-70.174246-28.996405L94.360088 582.185502c-18.74697-18.738783-29.070082-43.664475-29.070083-70.174246 0-26.516934 10.32209-51.443649 29.070083-70.182432L441.821661 94.367251c38.689161-38.680974 101.642958-38.721907 140.363841-0.008186l347.4452 347.469759c18.755156 18.738783 29.077246 43.664475 29.077246 70.182432 0 26.508747-10.32209 51.427276-29.077246 70.174246L582.185502 929.647075c-19.352767 19.336394-44.762483 29.012777-70.189595 29.012778z m0.016373-827.178309c-8.481162 0-16.962324 3.222391-23.407106 9.676383L141.142577 488.611314c-12.898775 12.898775-12.898775 33.891901 0 46.790675l347.461573 347.461574c12.891611 12.906961 33.907251 12.890588 46.798863-0.016373l347.4452-347.445201v-0.008186c6.251378-6.243191 9.692756-14.554484 9.692756-23.38357 0-8.836249-3.440355-17.147542-9.692756-23.391756L535.403013 141.14974c-6.444782-6.445806-14.925944-9.668197-23.390733-9.668196z" fill="#444444" p-id="2784"></path>
  <path d="M677.419494 470.651266H553.354873V346.586646h-82.709746v124.06462H346.580506v82.709747h124.064621v124.06462h82.709746V553.361013h124.064621z" fill="#083F77" p-id="2785"></path>
</svg>