<svg t="1589171894060" class="icon" viewBox="0 0 1024 1024" version="1.1"
  xmlns="http://www.w3.org/2000/svg" p-id="3038" width="15" height="15">
  <path d="M735.351927 958.708971H288.647049c-37.516452 0-68.119447-30.234605-68.706824-67.633376L185.611371 273.366018c-1.057075-18.942421 13.456477-35.158754 32.398898-36.21583 19.395746-1.006933 35.166941 13.456477 36.224016 32.407084l34.361599 618.498546c0.033769 0.63752 0.050142 1.27504 0.050142 1.912559l446.704878 0.016373c0-0.63752 0.016373-1.292436 0.050142-1.929955l34.361599-618.498546c1.057075-18.959817 17.533328-33.229822 36.224016-32.407084 18.942421 1.057075 33.455973 17.273409 32.398898 36.21583L804.056706 891.074571c-0.584308 37.399795-31.188326 67.6344-68.704779 67.6344z" fill="#444444" p-id="3039"></path>
  <path d="M889.980657 271.461645H134.01832c-18.97619 0-34.361599-15.385409-34.361599-34.361599s15.385409-34.361599 34.361599-34.361599h755.962337c18.97619 0 34.361599 15.385409 34.361599 34.361599s-15.384385 34.361599-34.361599 34.361599z" fill="#444444" p-id="3040"></path>
  <path d="M683.814134 735.350904H340.195076v51.54291c0 18.977213 15.384385 34.361599 34.361599 34.361599h274.89586c18.977213 0 34.361599-15.384385 34.361599-34.361599V735.350904z" fill="#083F77" p-id="3041"></path>
  <path d="M676.930353 271.461645c-18.97619 0-34.361599-15.385409-34.361599-34.361599v-68.724221c0-18.950607-15.419178-34.361599-34.361598-34.361599H415.776472c-18.942421 0-34.361599 15.410991-34.361599 34.361599v68.724221c0 18.97619-15.385409 34.361599-34.361599 34.361599s-34.361599-15.385409-34.361599-34.361599v-68.724221c0-56.844659 46.24116-103.08582 103.08582-103.08582H608.206132c56.844659 0 103.08582 46.24116 103.08582 103.08582v68.724221c0 18.97619-15.385409 34.361599-34.361599 34.361599z" fill="#444444" p-id="3042"></path>
</svg>